<svg width="169" height="43" viewBox="0 0 169 43" fill="none" xmlns="http://www.w3.org/2000/svg">
<path d="M65.9821 31V12.28H69.1541L77.8381 25.475V12.28H81.0101V31H77.8381L69.1541 17.805V31H65.9821ZM90.8452 31.39C89.4412 31.39 88.2149 31.0737 87.1662 30.441C86.1176 29.8083 85.3029 28.9373 84.7222 27.828C84.1502 26.71 83.8642 25.4273 83.8642 23.98C83.8642 22.5067 84.1589 21.2153 84.7482 20.106C85.3376 18.9967 86.1566 18.13 87.2052 17.506C88.2539 16.882 89.4672 16.57 90.8452 16.57C92.2579 16.57 93.4886 16.8863 94.5372 17.519C95.5859 18.1517 96.4006 19.027 96.9812 20.145C97.5619 21.2543 97.8522 22.5327 97.8522 23.98C97.8522 25.436 97.5576 26.723 96.9682 27.841C96.3876 28.9503 95.5729 29.8213 94.5242 30.454C93.4756 31.078 92.2492 31.39 90.8452 31.39ZM90.8452 28.452C92.0932 28.452 93.0206 28.036 93.6272 27.204C94.2339 26.372 94.5372 25.2973 94.5372 23.98C94.5372 22.6193 94.2296 21.536 93.6142 20.73C92.9989 19.9153 92.0759 19.508 90.8452 19.508C90.0046 19.508 89.3112 19.6987 88.7652 20.08C88.2279 20.4527 87.8292 20.977 87.5692 21.653C87.3092 22.3203 87.1792 23.096 87.1792 23.98C87.1792 25.3407 87.4869 26.4283 88.1022 27.243C88.7262 28.049 89.6406 28.452 90.8452 28.452ZM100.716 31V16.96H103.485V20.379L103.147 19.937C103.321 19.469 103.55 19.0443 103.836 18.663C104.131 18.273 104.482 17.9523 104.889 17.701C105.236 17.467 105.617 17.285 106.033 17.155C106.458 17.0163 106.891 16.934 107.333 16.908C107.775 16.8733 108.204 16.8907 108.62 16.96V19.885C108.204 19.7637 107.723 19.7247 107.177 19.768C106.64 19.8113 106.155 19.963 105.721 20.223C105.288 20.457 104.933 20.756 104.655 21.12C104.387 21.484 104.187 21.9 104.057 22.368C103.927 22.8273 103.862 23.3257 103.862 23.863V31H100.716ZM115.599 31V15.218H109.541V12.28H124.79V15.218H118.732V31H115.599ZM131.17 31.39C129.748 31.39 128.5 31.0823 127.426 30.467C126.351 29.8517 125.51 28.998 124.904 27.906C124.306 26.814 124.007 25.5573 124.007 24.136C124.007 22.602 124.301 21.2717 124.891 20.145C125.48 19.0097 126.299 18.13 127.348 17.506C128.396 16.882 129.61 16.57 130.988 16.57C132.444 16.57 133.679 16.9123 134.693 17.597C135.715 18.273 136.474 19.2307 136.968 20.47C137.462 21.7093 137.648 23.1697 137.527 24.851H134.42V23.707C134.411 22.1817 134.142 21.068 133.614 20.366C133.085 19.664 132.253 19.313 131.118 19.313C129.835 19.313 128.882 19.7117 128.258 20.509C127.634 21.2977 127.322 22.4547 127.322 23.98C127.322 25.4013 127.634 26.502 128.258 27.282C128.882 28.062 129.792 28.452 130.988 28.452C131.759 28.452 132.422 28.283 132.977 27.945C133.54 27.5983 133.973 27.1 134.277 26.45L137.371 27.386C136.833 28.6513 136.001 29.635 134.875 30.337C133.757 31.039 132.522 31.39 131.17 31.39ZM126.334 24.851V22.485H135.993V24.851H126.334ZM146.524 31.39C145.077 31.39 143.842 31.0693 142.819 30.428C141.797 29.778 141.012 28.894 140.466 27.776C139.929 26.658 139.656 25.3927 139.647 23.98C139.656 22.5413 139.938 21.2673 140.492 20.158C141.056 19.04 141.853 18.1647 142.884 17.532C143.916 16.8907 145.142 16.57 146.563 16.57C148.158 16.57 149.506 16.973 150.606 17.779C151.716 18.5763 152.439 19.6683 152.777 21.055L149.657 21.9C149.415 21.146 149.012 20.561 148.448 20.145C147.885 19.7203 147.244 19.508 146.524 19.508C145.71 19.508 145.038 19.703 144.509 20.093C143.981 20.4743 143.591 21.003 143.339 21.679C143.088 22.355 142.962 23.122 142.962 23.98C142.962 25.3147 143.261 26.3937 143.859 27.217C144.457 28.0403 145.346 28.452 146.524 28.452C147.356 28.452 148.011 28.2613 148.487 27.88C148.973 27.4987 149.337 26.9483 149.579 26.229L152.777 26.944C152.344 28.374 151.586 29.4747 150.502 30.246C149.419 31.0087 148.093 31.39 146.524 31.39ZM165.094 31V24.24C165.094 23.798 165.063 23.3083 165.003 22.771C164.942 22.2337 164.799 21.718 164.574 21.224C164.357 20.7213 164.028 20.3097 163.586 19.989C163.152 19.6683 162.563 19.508 161.818 19.508C161.419 19.508 161.025 19.573 160.635 19.703C160.245 19.833 159.889 20.0583 159.569 20.379C159.257 20.691 159.005 21.1243 158.815 21.679C158.624 22.225 158.529 22.927 158.529 23.785L156.67 22.992C156.67 21.796 156.899 20.7127 157.359 19.742C157.827 18.7713 158.511 18 159.413 17.428C160.314 16.8473 161.423 16.557 162.741 16.557C163.781 16.557 164.639 16.7303 165.315 17.077C165.991 17.4237 166.528 17.8657 166.926 18.403C167.325 18.9403 167.62 19.5123 167.811 20.119C168.001 20.7257 168.123 21.302 168.175 21.848C168.235 22.3853 168.266 22.823 168.266 23.161V31H165.094ZM155.357 31V12.28H158.152V22.134H158.529V31H155.357Z" fill="#BFDBFE"/>
<g clip-path="url(#clip0_0_1)">
<path d="M11.9581 9.16698C8.2108 13.2016 4.46352 17.2362 0.716246 21.2707C-0.655774 22.748 0.0701163 24.7623 1.81942 25.4492C6.43977 27.2635 10.6173 30.0944 14.108 33.6097C16.3785 35.8962 19.9143 32.361 17.6435 30.0742C13.5152 25.9168 8.59264 22.7655 3.14862 20.6278L4.25179 24.8063C7.99906 20.7717 11.7463 16.7371 15.4936 12.7025C17.6813 10.3471 14.1535 6.80316 11.9581 9.16698Z" fill="#8B5CF6"/>
<path d="M42.269 12.7025C46.0162 16.7371 49.7635 20.7717 53.5108 24.8063C53.8785 23.4134 54.2462 22.0206 54.6139 20.6278C49.17 22.7655 44.2473 25.9168 40.1191 30.0742C37.8492 32.36 41.3831 35.8972 43.6546 33.6097C47.1454 30.0943 51.3227 27.2635 55.9432 25.4492C57.6925 24.7623 58.4183 22.748 57.0463 21.2707C53.2991 17.2361 49.5518 13.2016 45.8045 9.16698C43.61 6.80418 40.0804 10.3461 42.269 12.7025Z" fill="#8B5CF6"/>
<path d="M24.6905 40.9371C29.606 28.3476 34.5215 15.7582 39.437 3.16876C39.9282 1.91068 38.8969 0.42484 37.6909 0.0934599C36.275 -0.29559 35.1086 0.57688 34.6156 1.83956C29.7001 14.429 24.7846 27.0184 19.8691 39.6079C19.3779 40.866 20.4092 42.3518 21.6152 42.6832C23.0311 43.0723 24.1975 42.1998 24.6905 40.9371Z" fill="#8B5CF6"/>
</g>
<defs>
<clipPath id="clip0_0_1">
<rect width="57.7626" height="42.7767" fill="white"/>
</clipPath>
</defs>
</svg>
